# xmcd CD database file
#
# Track frame offsets:
#	150
#	22055
#	43112
#
# Disc length: 859 seconds
#
# Revision: 4
# Processed by: cddbd v1.5.2PL0 Copyright (c) Steve Scherf et al.
# Submitted via: CDex 1.51
#
DISCID=21035903
DTITLE=Gackt - 忘れないから
DYEAR=2002
DGENRE=JRock
TTITLE0=忘れないから
TTITLE1=Dooms day
TTITLE2=忘れないから (Instrumental)
EXTD=YEAR: 2002
EXTT0=
EXTT1=
EXTT2=
PLAYORDER=
